<?xml version="1.0" encoding="iso-8859-1"?>
<!-- Generator: Adobe Illustrator 19.0.0, SVG Export Plug-In . SVG Version: 6.00 Build 0)  -->
<svg version="1.1" id="Layer_1" xmlns="http://www.w3.org/2000/svg" xmlns:xlink="http://www.w3.org/1999/xlink" x="0px" y="0px"
	 viewBox="0 0 511.999 511.999" style="enable-background:new 0 0 511.999 511.999;" xml:space="preserve">
<path style="fill:#c42179;" d="M339.786,431.368c17.54-8.514,33.689-19.577,48.006-32.912c14.273-13.306,26.45-28.604,36.165-45.442
	c9.906-17.159,17.086-35.638,21.365-54.937c4.395-19.705,34.379-13.251,29.982,6.623c-4.939,22.376-13.262,43.8-24.736,63.67
	c-11.254,19.475-25.322,37.162-41.836,52.563c-16.573,15.416-35.242,28.223-55.523,38.071
	C334.67,467.9,321.76,440.139,339.786,431.368z"/>
<path style="fill:#d92586;" d="M206.583,476.166c-22.332-4.924-43.756-13.233-63.656-24.706
	c-19.504-11.254-37.192-25.307-52.548-41.778c-15.431-16.544-28.252-35.199-38.1-55.45c-8.848-18.187,18.724-31.671,27.637-13.423
	c8.499,17.496,19.577,33.616,32.912,47.918c13.291,14.243,28.574,26.406,45.442,36.121c17.174,9.906,35.653,17.071,54.937,21.336
	C232.819,450.488,226.601,480.643,206.583,476.166z"/>
<path style="fill:#c42179;" d="M340.958,359.858c8.397-6.961,15.914-14.873,22.362-23.534c6.535-8.792,11.972-18.332,16.178-28.399
	c7.879-18.701,36.16-6.855,28.34,11.869c-5.173,12.339-11.855,24.076-19.87,34.847c-7.899,10.639-17.13,20.354-27.403,28.868
	C344.867,396.485,325.409,372.752,340.958,359.858z"/>
<g>
	<path style="fill:#d92586;" d="M191.709,408.817c-12.383-5.158-24.12-11.825-34.906-19.812
		c-10.727-7.957-20.456-17.174-28.942-27.388c-12.872-15.523,10.579-35.286,23.652-19.607c6.902,8.323,14.844,15.826,23.593,22.318
		c8.763,6.491,18.332,11.928,28.413,16.119C222.092,388.203,210.643,416.563,191.709,408.817z"/>
	<path style="fill:#d92586;" d="M34.884,207.987c4.895-22.464,13.189-43.961,24.648-63.919
		c11.269-19.592,25.351-37.338,41.866-52.768c16.573-15.475,35.286-28.34,55.611-38.217c18.388-8.843,31.553,18.833,13.423,27.637
		c-17.569,8.528-33.747,19.651-48.08,33.03c-14.273,13.335-26.45,28.692-36.18,45.618c-9.892,17.218-17.042,35.784-21.278,55.157
		C60.544,234.492,30.555,227.875,34.884,207.987z"/>
</g>
<path style="fill:#c42179;" d="M430.552,171.425c-8.543-17.613-19.651-33.806-33.015-48.138
	c-13.364-14.302-28.706-26.494-45.632-36.224c-17.247-9.921-35.814-17.086-55.201-21.321c-19.651-4.271-13.506-34.126,6.535-30.011
	c22.479,4.895,44.005,13.218,63.978,24.692c19.577,11.254,37.324,25.365,52.768,41.91c15.475,16.573,28.325,35.316,38.202,55.699
	C467.126,176.436,439.276,189.452,430.552,171.425z"/>
<path style="fill:#d92586;" d="M102.278,192.761c5.144-12.412,11.825-24.223,19.856-35.067
	c7.957-10.727,17.174-20.486,27.432-29.015c15.552-13.001,35.286,10.61,19.636,23.622c-8.367,6.961-15.9,14.932-22.391,23.681
	c-6.535,8.821-11.957,18.42-16.134,28.531C122.804,223.398,94.53,211.517,102.278,192.761z"/>
<path style="fill:#c42179;" d="M359.085,170.282c-6.917-8.367-14.844-15.9-23.578-22.42c-8.821-6.55-18.376-12.001-28.428-16.193
	c-18.747-7.829-6.892-36.203,11.84-28.34c12.339,5.144,24.091,11.84,34.92,19.9c10.727,7.986,20.456,17.233,28.927,27.505
	C395.709,166.379,371.951,185.883,359.085,170.282z"/>
<g>
	<path style="fill:#C4CAD9;" d="M203.565,301.923H15.75c-7.957,0-14.595-6.081-15.299-14.009
		c-3.033-34.495,12.085-68.55,40.529-88.875c16.632-11.708,36.092-17.863,56.344-17.863c7.034,0,14.214,0.879,22.596,2.784
		c17.452,4,35.272,12.133,57.838,22.42c8.616,3.927,17.981,8.206,28.311,12.691c7.851,3.395,11.467,12.631,7.84,20.5
		c-4.987,10.849-4.956,26.143,2.814,39.081C222.854,288.838,215.502,301.923,203.565,301.923z"/>
	<path style="fill:#C4CAD9;" d="M312.496,41.513c-14.104-20.106-34.212-33.612-57.32-39.014c-9.905-2.402-20.407-3.002-31.21-2.101
		c-8.104,0.599-14.106,7.203-14.106,15.306c0,0,0,33.612,0,72.626c0,52.819,0,115.241,0,115.241
		c0,11.704,12.905,19.207,23.109,13.205c6.601-3.901,14.404-6.001,22.208-6.001c5.702,0,11.704,1.199,17.407,3.601
		c7.803,3.301,16.806-0.3,20.106-8.104c2.702-6.002,29.41-68.724,31.812-74.426C335.604,100.634,330.803,67.321,312.496,41.513z"/>
</g>
<path style="fill:#B8BFCC;" d="M324.5,131.846c-2.402,5.702-29.11,68.424-31.812,74.426c-3.301,7.803-12.303,11.404-20.106,8.104
	c-5.702-2.402-11.704-3.601-17.407-3.601V2.499c23.109,5.402,43.216,18.907,57.32,39.014
	C330.803,67.321,335.604,100.634,324.5,131.846z"/>
<path style="fill:#C4CAD9;" d="M293.051,294.721c-4.503-3-10.503-3-15.306,0c-6.601,3.901-14.404,6.002-22.208,6.002
	c-5.702,0-11.704-1.199-17.407-3.601c-7.803-3.301-16.806,0.3-20.106,8.104c-4.801,11.402-9.604,21.607-13.806,31.21
	c-14.104,30.91-24.009,53.12-24.009,77.727c0,20.409,6.002,39.614,17.407,55.821c14.404,20.407,34.812,33.912,57.921,39.615
	c7.203,1.501,14.705,2.4,22.508,2.4c3,0,6.002,0,8.702-0.3c8.104-0.599,14.106-7.503,14.106-15.304v-188.47
	C300.854,302.523,297.852,297.422,293.051,294.721z"/>
<path style="fill:#B8BFCC;" d="M300.854,307.925v188.47c0,7.801-6.002,14.705-14.106,15.304c-2.7,0.3-5.702,0.3-8.702,0.3
	c-7.803,0-15.306-0.899-22.508-2.4V300.723c7.803,0,15.607-2.101,22.208-6.002c4.803-3,10.804-3,15.306,0
	C297.852,297.422,300.854,302.523,300.854,307.925z"/>
<path style="fill:#E6EEFF;" d="M284.585,186.682c-9.604-3.901-19.506-6.002-29.41-6.002c-13.205,0-26.41,3.601-37.814,10.203
	c-23.408,13.505-37.514,38.415-37.514,65.125c0,42.014,34.514,75.328,75.328,75.328s75.328-33.013,75.328-75.328
	C330.503,223.895,310.995,198.086,284.585,186.682z"/>
<path style="fill:#B8BFCC;" d="M414.026,331.679c-24.56,0-47.009-10.17-78.076-24.252c-9.217-4.191-19.328-8.763-30.597-13.584
	c-7.752-3.312-11.386-12.25-8.133-20.031c2.359-5.7,3.619-11.855,3.619-17.805c0-8.016-1.964-15.607-5.686-21.951
	c-5.98-10.197,1.378-23.123,13.247-23.123h187.862c7.957,0,14.595,6.081,15.299,14.009c3.033,34.51-12.749,68.565-41.192,88.875
	C453.767,325.525,434.307,331.679,414.026,331.679z"/>
<path style="fill:#DAE2F2;" d="M330.503,256.007c0,42.314-34.514,75.328-75.328,75.328V180.679c9.905,0,19.806,2.101,29.41,6.002
	C310.995,198.086,330.503,223.895,330.503,256.007z"/>
<path style="fill:#5C5F66;" d="M270.18,256.007c0,8.402-6.601,15.005-15.005,15.005s-15.005-6.603-15.005-15.005
	c0-8.404,6.601-15.005,15.005-15.005S270.18,247.603,270.18,256.007z"/>
<path style="fill:#53565C;" d="M270.18,256.007c0,8.402-6.601,15.005-15.005,15.005v-30.011
	C263.579,241.002,270.18,247.603,270.18,256.007z"/>
<g>
</g>
<g>
</g>
<g>
</g>
<g>
</g>
<g>
</g>
<g>
</g>
<g>
</g>
<g>
</g>
<g>
</g>
<g>
</g>
<g>
</g>
<g>
</g>
<g>
</g>
<g>
</g>
<g>
</g>
</svg>
